<svg xmlns="http://www.w3.org/2000/svg" width="27.498" height="18.868" viewBox="0 0 27.498 18.868">
  <g id="console" transform="translate(0 -55.109)">
    <g id="Group_859" data-name="Group 859" transform="translate(0 55.109)">
      <g id="Group_858" data-name="Group 858">
        <path id="Path_2540" data-name="Path 2540" d="M27.484,68.158a27.931,27.931,0,0,0-.754-5.188A20.482,20.482,0,0,0,25.189,58.6c-2.4-4.4-5-3.721-8.117-2.863a21.466,21.466,0,0,1-3.151.644h-.343a21.466,21.466,0,0,1-3.151-.644c-3.117-.823-5.72-1.539-8.117,2.9A18.762,18.762,0,0,0,.769,63.006a27.93,27.93,0,0,0-.754,5.188,10.154,10.154,0,0,0,.48,4.079,2.643,2.643,0,0,0,1.644,1.61,3.218,3.218,0,0,0,2.192-.25,16.117,16.117,0,0,0,4.384-3.256,7.345,7.345,0,0,1,5.035-1.61,7.345,7.345,0,0,1,5.035,1.61,16.117,16.117,0,0,0,4.384,3.256,3.442,3.442,0,0,0,2.192.25A2.609,2.609,0,0,0,27,72.237,9.963,9.963,0,0,0,27.484,68.158ZM25.84,71.736a1.391,1.391,0,0,1-.822.895,2.272,2.272,0,0,1-1.4-.179,13.989,13.989,0,0,1-3.973-2.97,8.323,8.323,0,0,0-5.891-2.04A8.779,8.779,0,0,0,7.824,69.41a14.252,14.252,0,0,1-3.973,2.97,2.042,2.042,0,0,1-1.4.179,1.391,1.391,0,0,1-.822-.895,8.816,8.816,0,0,1-.343-3.435A25.707,25.707,0,0,1,2,63.292,17.557,17.557,0,0,1,3.44,59.249c1.884-3.542,4.076-2.97,6.679-2.254a19.331,19.331,0,0,0,3.357.68h.514a19.09,19.09,0,0,0,3.391-.68c2.6-.68,4.8-1.288,6.679,2.254A16.965,16.965,0,0,1,25.5,63.292a28.209,28.209,0,0,1,.719,4.938A8.625,8.625,0,0,1,25.84,71.736Z" transform="translate(0 -55.109)" fill="#fff"/>
      </g>
    </g>
    <g id="Group_861" data-name="Group 861" transform="translate(3.701 58.676)">
      <g id="Group_860" data-name="Group 860">
        <path id="Path_2541" data-name="Path 2541" d="M48.744,97.486a2.174,2.174,0,0,0-1.288-.608,2.036,2.036,0,0,0-.572-1.252l-.036-.036a2.027,2.027,0,0,0-1.467-.608,2.113,2.113,0,0,0-1.467.608,2.08,2.08,0,0,0-.608,1.288,2.132,2.132,0,0,0-1.288.573l-.036.036a2.027,2.027,0,0,0-.608,1.467,2.113,2.113,0,0,0,.608,1.467,2,2,0,0,0,1.324.608,1.909,1.909,0,0,0,.608,1.288,2.027,2.027,0,0,0,1.467.608,2.113,2.113,0,0,0,1.467-.608,2.174,2.174,0,0,0,.608-1.288,1.909,1.909,0,0,0,1.288-.608,2.027,2.027,0,0,0,.608-1.467A2.113,2.113,0,0,0,48.744,97.486Zm-.895,2a.728.728,0,0,1-.537.215h-.5a.679.679,0,0,0-.68.68v.465a.751.751,0,1,1-1.5,0v-.5a.679.679,0,0,0-.68-.68h-.5a.734.734,0,0,1-.537-1.252l.036-.036a.855.855,0,0,1,.5-.179h.5a.679.679,0,0,0,.68-.68v-.5a.759.759,0,0,1,1.288-.537l.036.036a.855.855,0,0,1,.179.5v.5a.679.679,0,0,0,.68.68h.5a.759.759,0,0,1,.537,1.288Z" transform="translate(-41.373 -94.981)" fill="#fff"/>
      </g>
    </g>
    <g id="Group_863" data-name="Group 863" transform="translate(18.431 58.855)">
      <g id="Group_862" data-name="Group 862" transform="translate(0 0)">
        <circle id="Ellipse_46" data-name="Ellipse 46" cx="1.252" cy="1.252" r="1.252" fill="#fff"/>
      </g>
    </g>
    <g id="Group_865" data-name="Group 865" transform="translate(18.431 63.936)">
      <g id="Group_864" data-name="Group 864" transform="translate(0 0)">
        <circle id="Ellipse_47" data-name="Ellipse 47" cx="1.252" cy="1.252" r="1.252" fill="#fff"/>
      </g>
    </g>
    <g id="Group_867" data-name="Group 867" transform="translate(16.01 61.395)">
      <g id="Group_866" data-name="Group 866">
        <circle id="Ellipse_48" data-name="Ellipse 48" cx="1.252" cy="1.252" r="1.252" fill="#fff"/>
      </g>
    </g>
    <g id="Group_869" data-name="Group 869" transform="translate(20.853 61.395)">
      <g id="Group_868" data-name="Group 868">
        <circle id="Ellipse_49" data-name="Ellipse 49" cx="1.252" cy="1.252" r="1.252" fill="#fff"/>
      </g>
    </g>
  </g>
</svg>
