<svg xmlns="http://www.w3.org/2000/svg" width="40.448" height="26.792" viewBox="0 0 40.448 26.792">
  <g id="games" transform="translate(0 -9.052)">
    <path id="Path_2658" data-name="Path 2658" d="M36.831,13.79c-5.342-8.777-13.39-2.671-13.39-2.671a4.172,4.172,0,0,1-2.138.72l-2.156,0a4.143,4.143,0,0,1-2.138-.718S8.96,5.015,3.617,13.793A27.082,27.082,0,0,0,.428,32.122c.377,2.34,1.62,3.9,3.966,3.7s7.416-6.3,7.416-6.3a2.894,2.894,0,0,1,1.95-.914l12.923,0a2.889,2.889,0,0,1,1.95.914s5.078,6.106,7.42,6.3,3.589-1.367,3.964-3.7A27.074,27.074,0,0,0,36.831,13.79ZM15.367,20.935H12.6v2.671a2.583,2.583,0,0,1-1.495.437,1.806,1.806,0,0,1-1.317-.489V20.935H7.167a2.1,2.1,0,0,1-.414-1.217,2.791,2.791,0,0,1,.361-1.594H9.886V15.353a3.013,3.013,0,0,1,1.39-.282,3.665,3.665,0,0,1,1.422.334l-.011,2.718H15.3a2.606,2.606,0,0,1,.495,1.3A3.273,3.273,0,0,1,15.367,20.935Zm12.711,3.044a2.193,2.193,0,1,1,2.194-2.193A2.19,2.19,0,0,1,28.078,23.979Zm0-6.035a2.193,2.193,0,1,1,2.194-2.193A2.19,2.19,0,0,1,28.078,17.944Zm5.462,3.24a2.193,2.193,0,1,1,2.194-2.193A2.19,2.19,0,0,1,33.54,21.183Z" transform="translate(0 0)" fill="#fff"/>
  </g>
</svg>
