<svg xmlns="http://www.w3.org/2000/svg" width="26.183" height="24.09" viewBox="0 0 26.183 24.09">
  <path id="heart" d="M18.257,0a6.938,6.938,0,0,0-5.666,2.95A6.938,6.938,0,0,0,6.925,0C3.236,0,0,3.432,0,7.345c0,3.813,2.153,7.74,6.227,11.357A33.5,33.5,0,0,0,12.4,23.037a.42.42,0,0,0,.385,0,33.5,33.5,0,0,0,6.17-4.335c4.076-3.617,6.229-7.544,6.229-11.357C25.183,3.432,21.947,0,18.257,0ZM12.591,22.187C11.05,21.336.839,15.393.839,7.345.839,3.879,3.683.839,6.925.839a6.1,6.1,0,0,1,5.3,3.1.437.437,0,0,0,.731,0,6.1,6.1,0,0,1,5.3-3.1c3.242,0,6.086,3.04,6.086,6.505,0,8.048-10.21,13.991-11.752,14.842Zm0,0" transform="translate(0.5 0.5)" fill="#eac43d" stroke="#eac43d" stroke-width="1"/>
</svg>
