<svg xmlns="http://www.w3.org/2000/svg" width="40.529" height="46.538" viewBox="0 0 40.529 46.538">
  <g id="megaphone" transform="translate(-4.001 16.162) rotate(-28)">
    <g id="Group_905" data-name="Group 905" transform="translate(0.016 8.493)">
      <g id="Group_904" data-name="Group 904">
        <path id="Path_2656" data-name="Path 2656" d="M17.221,139.491V126.368c-.372.034-.74.092-1.114.11H5.392a1.076,1.076,0,0,0-1.075,1.075v1.075H1.091A1.076,1.076,0,0,0,.016,129.7v6.452a1.076,1.076,0,0,0,1.075,1.075H4.317v1.075a1.076,1.076,0,0,0,1.075,1.075h.652L10.367,150.9a2.139,2.139,0,0,0,1.583,1.338,2.105,2.105,0,0,0,1.942-.591l2.583-2.561a2.146,2.146,0,0,0,.4-2.488l-3.609-7.219h2.856C16.487,139.4,16.853,139.456,17.221,139.491Z" transform="translate(-0.016 -126.368)" fill="#fff"/>
      </g>
    </g>
    <g id="Group_907" data-name="Group 907" transform="translate(19.371)">
      <g id="Group_906" data-name="Group 906">
        <path id="Path_2657" data-name="Path 2657" d="M302.894.52a.764.764,0,0,0-.069-.1,1.062,1.062,0,0,0-.449-.344c-.006,0-.011-.011-.017-.013-.021-.006-.041,0-.062,0a1.07,1.07,0,0,0-.3-.06,1,1,0,0,0-.209.043,1.189,1.189,0,0,0-.12.024,1.067,1.067,0,0,0-.471.305c-.009.009-.021.011-.03.019a22.629,22.629,0,0,1-13.149,7.792V21.927a22.626,22.626,0,0,1,13.149,7.789c.009.011.024.015.034.028a1.044,1.044,0,0,0,.267.206c.032.019.058.047.09.062a1.106,1.106,0,0,0,.439.095,1.123,1.123,0,0,0,.363-.062c.006,0,.011-.011.017-.013a1.045,1.045,0,0,0,.449-.344c.026-.034.045-.065.069-.1a1.041,1.041,0,0,0,.176-.555V1.075A1.041,1.041,0,0,0,302.894.52Z" transform="translate(-288.016)" fill="#fff"/>
      </g>
    </g>
  </g>
</svg>
