<svg xmlns="http://www.w3.org/2000/svg" width="26.196" height="28.298" viewBox="0 0 26.196 28.298">
  <path id="megaphone" d="M23.333,23.5a2.984,2.984,0,0,0-2.945-5.1l-1.863-3.228a2.013,2.013,0,0,0-3.446-.068,29.613,29.613,0,0,1-8.971,9.074.481.481,0,0,0-.161.633c.02.036,4.531,7.951,4.552,7.987a.481.481,0,1,0,.833-.481L7.011,24.735a30.56,30.56,0,0,0,8.88-9.116,1.051,1.051,0,0,1,1.8.036l6.672,11.557a1.051,1.051,0,0,1-.869,1.576,30.576,30.576,0,0,0-12.744,3.337c-.017.009-4.517,2.607-4.827,2.786a1.686,1.686,0,0,1-2.3-.617L1.187,30.074a1.686,1.686,0,0,1,.617-2.3l5.032-2.938A.481.481,0,1,0,6.355,24L1.323,26.941a2.649,2.649,0,0,0-.969,3.615L2.79,34.775a2.649,2.649,0,0,0,3.615.969l.111-.064,3.007,5.209a1.563,1.563,0,0,0,2.136.572l1.055-.609a1.563,1.563,0,0,0,.572-2.136l-3.106-5.31a.481.481,0,0,0-.833.481l3.106,5.31a.6.6,0,0,1-.22.822l-1.055.609a.6.6,0,0,1-.822-.22L7.349,35.2,11.2,32.975a29.612,29.612,0,0,1,12.332-3.226A2.013,2.013,0,0,0,25.2,26.73ZM23.2,20.181a2.026,2.026,0,0,1-.353,2.472l-1.965-3.4A2.022,2.022,0,0,1,23.2,20.181Z" transform="translate(0.357 -13.816)" fill="#eac43d" stroke="#eac43d" stroke-width="0.7"/>
</svg>
