<svg xmlns="http://www.w3.org/2000/svg" width="22.836" height="27.372" viewBox="0 0 22.836 27.372">
  <g id="user" transform="translate(0 0)">
    <path id="Path_2552" data-name="Path 2552" d="M93.624,13.185a6.379,6.379,0,0,0,4.661-1.931,6.38,6.38,0,0,0,1.931-4.661,6.38,6.38,0,0,0-1.931-4.661,6.591,6.591,0,0,0-9.323,0,6.379,6.379,0,0,0-1.931,4.661,6.379,6.379,0,0,0,1.931,4.661A6.381,6.381,0,0,0,93.624,13.185ZM90.1,3.066a4.987,4.987,0,0,1,7.054,0,4.766,4.766,0,0,1,1.462,3.527,4.766,4.766,0,0,1-1.462,3.527,4.986,4.986,0,0,1-7.054,0,4.765,4.765,0,0,1-1.462-3.527A4.766,4.766,0,0,1,90.1,3.066Zm0,0" transform="translate(-82.379 0)" fill="#eac43d"/>
    <path id="Path_2553" data-name="Path 2553" d="M22.781,255.142a16.284,16.284,0,0,0-.222-1.73,13.626,13.626,0,0,0-.425-1.739,8.589,8.589,0,0,0-.715-1.622,6.113,6.113,0,0,0-1.078-1.4,4.753,4.753,0,0,0-1.548-.973,5.351,5.351,0,0,0-1.977-.358,2.006,2.006,0,0,0-1.072.454c-.321.209-.7.452-1.116.72a6.4,6.4,0,0,1-1.444.636,5.608,5.608,0,0,1-3.533,0,6.377,6.377,0,0,1-1.443-.636c-.415-.265-.791-.508-1.117-.72a2,2,0,0,0-1.071-.454,5.345,5.345,0,0,0-1.977.358,4.749,4.749,0,0,0-1.549.973,6.115,6.115,0,0,0-1.078,1.4A8.606,8.606,0,0,0,.7,251.674a13.659,13.659,0,0,0-.425,1.739,16.173,16.173,0,0,0-.222,1.73c-.036.523-.055,1.067-.055,1.616A4.545,4.545,0,0,0,1.35,260.2a4.859,4.859,0,0,0,3.478,1.269h13.18a4.859,4.859,0,0,0,3.478-1.269,4.543,4.543,0,0,0,1.35-3.439c0-.552-.019-1.1-.055-1.617Zm-2.4,3.893a3.271,3.271,0,0,1-2.373.827H4.828a3.272,3.272,0,0,1-2.373-.827,2.968,2.968,0,0,1-.852-2.277c0-.513.017-1.019.051-1.505a14.588,14.588,0,0,1,.2-1.558,12.047,12.047,0,0,1,.374-1.533,7.006,7.006,0,0,1,.582-1.319,4.533,4.533,0,0,1,.792-1.038,3.153,3.153,0,0,1,1.03-.64,3.691,3.691,0,0,1,1.263-.244c.056.03.156.087.318.193.33.215.71.46,1.13.728a7.948,7.948,0,0,0,1.813.81,7.211,7.211,0,0,0,4.52,0,7.956,7.956,0,0,0,1.814-.811c.43-.275.8-.513,1.129-.728.162-.105.262-.163.318-.193a3.694,3.694,0,0,1,1.264.244,3.157,3.157,0,0,1,1.03.64,4.521,4.521,0,0,1,.792,1.038,6.983,6.983,0,0,1,.582,1.318,12.02,12.02,0,0,1,.374,1.533,14.71,14.71,0,0,1,.2,1.558h0c.034.484.051.99.051,1.5a2.968,2.968,0,0,1-.852,2.276Zm0,0" transform="translate(0 -234.094)" fill="#eac43d"/>
  </g>
</svg>
