<svg xmlns="http://www.w3.org/2000/svg" width="23.801" height="26.928" viewBox="0 0 23.801 26.928">
  <path id="XMLID_317_" d="M17.647,82.961a.6.6,0,1,0-1.042.6l5.165,8.973a.842.842,0,0,1-1.459.842L12.85,80.457a.842.842,0,0,1,1.459-.842L16.6,83.583a.6.6,0,1,0,1.042-.6l-2.291-3.969a2.046,2.046,0,0,0-3.787,1.374L3.976,89.61l-1.99,1.149a3.971,3.971,0,0,0,.958,7.274,3.992,3.992,0,0,0,1.034.137A3.92,3.92,0,0,0,4.72,98.1l5.321,5.369a2.143,2.143,0,1,0,3.045-3.018l-.859-.867.589-.34a1.794,1.794,0,0,0,.378-2.817l-.69-.7,7.225-1.2a2.046,2.046,0,0,0,3.083-2.593ZM1.575,95.581A2.771,2.771,0,0,1,2.588,91.8l1.563-.9,2.767,4.793-1.564.9a2.771,2.771,0,0,1-3.78-1.013Zm10.919,6.5a.94.94,0,0,1-1.6.537L5.956,97.636l1.684-.972,4.591,4.632A.934.934,0,0,1,12.495,102.083Zm-.156-4.811a.591.591,0,0,1-.124.928l-.864.5L8.987,96.314l2.063-.343ZM8.053,95.25,5.1,90.136,12.122,81.6l6.833,11.834Z" transform="translate(0.359 -77.523)" fill="#fff" stroke="#fff" stroke-width="0.7"/>
</svg>
